<svg width="165" height="32" viewBox="0 0 165 32" fill="none" xmlns="http://www.w3.org/2000/svg">
<path fill-rule="evenodd" clip-rule="evenodd" d="M6.45678 16.2204C4.88439 16.2204 3.45785 17.1416 2.81096 18.5748L0.354182 24.0178C0.120734 24.535 0 25.0959 0 25.6634V26.0002C0 28.2094 1.79086 30.0002 4 30.0002H23.4541C23.4543 30.0002 23.4545 30 23.4545 29.9998C23.4545 29.9996 23.4547 29.9994 23.4549 29.9994H47.2032C47.2035 29.9994 47.2037 29.9996 47.2037 29.9998C47.2037 30 47.2039 30.0002 47.2041 30.0002H66.3654C68.5746 30.0002 70.3654 28.2094 70.3654 26.0002V25.282C70.3654 24.7201 70.2471 24.1644 70.018 23.6514L67.7583 18.5897C67.1149 17.1485 65.6841 16.2203 64.1058 16.2203H55.2226H19.4449C19.4449 16.2203 19.4449 16.2203 19.4449 16.2204C19.4449 16.2204 19.4449 16.2204 19.4448 16.2204H6.45678ZM24.9199 19.4454C24.1106 19.4454 23.4545 20.1015 23.4545 20.9108C23.4545 21.7201 24.1106 22.3762 24.9199 22.3762H45.7382C46.5476 22.3762 47.2037 21.7201 47.2037 20.9108C47.2037 20.1015 46.5476 19.4454 45.7382 19.4454H24.9199ZM47.2037 25.8946C47.2037 25.0849 46.5473 24.4286 45.7376 24.4286H24.9206C24.1109 24.4286 23.4545 25.0849 23.4545 25.8946C23.4545 26.7043 24.1109 27.3607 24.9206 27.3607H45.7376C46.5473 27.3607 47.2037 26.7043 47.2037 25.8946ZM62.4152 23.5827C62.4152 25.5156 60.8482 27.0826 58.9152 27.0826C56.9823 27.0826 55.4153 25.5156 55.4153 23.5827C55.4153 21.6497 56.9823 20.0827 58.9152 20.0827C60.8482 20.0827 62.4152 21.6497 62.4152 23.5827ZM15.1653 23.5827C15.1653 25.5157 13.5983 27.0827 11.6654 27.0827C9.73239 27.0827 8.16541 25.5157 8.16541 23.5827C8.16541 21.6497 9.73239 20.0828 11.6654 20.0828C13.5983 20.0828 15.1653 21.6497 15.1653 23.5827Z" fill="#4942E4"/>
<path fill-rule="evenodd" clip-rule="evenodd" d="M24.6295 2H23.1312C21.6991 2 20.3762 2.76567 19.6628 4.0075L16.3424 9.7874C14.8105 12.4541 16.7355 15.7799 19.8109 15.7799H24.6295H45.7372H50.5558C53.6312 15.7799 55.5561 12.4541 54.0242 9.7874L50.7039 4.0075C49.9905 2.76567 48.6676 2 47.2354 2H45.7372H24.6295Z" fill="#FEFEFE"/>
<path d="M85.15 25.25C81.45 25.25 78.65 22.55 78.65 18.975C78.65 15.375 81.475 12.65 85.15 12.65C87.025 12.65 88.675 13.375 89.85 14.675L87.75 16.8C87.1 16.1 86.225 15.725 85.15 15.725C83.325 15.725 82 17.05 82 18.95C82 20.875 83.325 22.2 85.15 22.2C86.25 22.2 87.15 21.8 87.775 21.075L89.9 23.2C88.675 24.55 87.05 25.25 85.15 25.25ZM96.5361 25.25C93.2361 25.25 90.7361 22.55 90.7361 18.975C90.7361 15.4 93.2361 12.675 96.5111 12.675C97.9611 12.675 99.1861 13.2 100.036 14.075V12.925H103.286V25H100.036V23.85C99.1861 24.725 97.9611 25.25 96.5361 25.25ZM97.1361 22.225C98.9611 22.225 100.211 20.875 100.211 18.95C100.211 17.05 98.9611 15.7 97.1361 15.7C95.3361 15.7 94.0861 17.05 94.0861 18.95C94.0861 20.875 95.3361 22.225 97.1361 22.225ZM106.183 25V6.925H109.458V13.95C110.308 13.15 111.508 12.675 112.883 12.675C116.233 12.675 118.733 15.4 118.733 18.975C118.733 22.55 116.233 25.25 112.883 25.25C111.483 25.25 110.283 24.75 109.433 23.925V25H106.183ZM112.333 22.225C114.108 22.225 115.383 20.875 115.383 18.95C115.383 17.05 114.108 15.7 112.308 15.7C110.508 15.7 109.258 17.05 109.258 18.95C109.258 20.875 110.508 22.225 112.333 22.225ZM120.881 25V12.925H124.156V14C124.881 13.15 125.906 12.675 127.281 12.675C128.456 12.675 129.381 13.05 130.131 13.9L128.081 16.25C127.681 15.85 127.206 15.65 126.531 15.65C125.106 15.65 124.156 16.525 124.156 18.325V25H120.881ZM132.931 10.975C131.856 10.975 131.081 10.15 131.081 9.1C131.081 8.05 131.856 7.225 132.931 7.225C134.006 7.225 134.781 8.05 134.781 9.1C134.781 10.15 134.006 10.975 132.931 10.975ZM131.281 25V12.925H134.581V25H131.281ZM142.582 25.25C139.232 25.25 136.732 22.55 136.732 18.975C136.732 15.4 139.232 12.675 142.582 12.675C143.932 12.675 145.132 13.15 146.007 13.95V6.925H149.282V25H146.032V23.925C145.182 24.75 143.957 25.25 142.582 25.25ZM143.132 22.225C144.957 22.225 146.207 20.875 146.207 18.95C146.207 17.05 144.957 15.7 143.132 15.7C141.332 15.7 140.082 17.05 140.082 18.95C140.082 20.875 141.332 22.225 143.132 22.225ZM157.954 25.25C154.179 25.25 151.379 22.6 151.379 18.95C151.379 15.375 154.154 12.65 157.729 12.65C161.179 12.65 163.679 15.2 163.679 18.675C163.679 19.1 163.629 19.55 163.504 20.1L154.679 20.125C155.079 21.625 156.254 22.5 157.929 22.5C159.129 22.5 160.179 22.075 160.904 21.25L162.829 23.175C161.629 24.55 159.904 25.25 157.954 25.25ZM157.729 15.375C156.179 15.4 155.079 16.25 154.679 17.675H160.529C160.204 16.175 159.254 15.375 157.729 15.375Z" fill="#FEFEFE"/>
</svg>
