<svg width="410" height="64" viewBox="0 0 410 64" fill="none" xmlns="http://www.w3.org/2000/svg">
<path fill-rule="evenodd" clip-rule="evenodd" d="M80.9215 33.377L114.346 33.377L120.628 47.4503V57H0V48.0917L6.64173 33.377H40.2094L80.9215 33.377V38.9058H40.2094L40.2094 43.932H80.9215V33.377ZM80.9215 52.4765V47.4503H40.2094V52.4765H80.9215ZM26 46C26 49.3137 23.3137 52 20 52C16.6863 52 14 49.3137 14 46C14 42.6863 16.6863 40 20 40C23.3137 40 26 42.6863 26 46ZM107 46C107 49.3137 104.314 52 101 52C97.6863 52 95 49.3137 95 46C95 42.6863 97.6863 40 101 40C104.314 40 107 42.6863 107 46Z" fill="#4942E4"/>
<path fill-rule="evenodd" clip-rule="evenodd" d="M42.2199 9H35.6859L22.1152 32.623H42.2199H78.4084H98.5131L84.9424 9H78.4084H42.2199Z" fill="#FEFEFE"/>
<path d="M157.792 56.704C144.288 56.704 134.048 46.592 134.048 33.344C134.048 20.16 144.224 10.112 157.728 10.112C164.896 10.112 170.4 12.544 174.624 16.576L167.904 23.36C165.536 20.8 162.144 19.264 157.728 19.264C149.856 19.264 144.352 24.896 144.352 33.344C144.352 41.92 149.856 47.552 157.728 47.552C162.336 47.552 165.664 46.016 168.16 43.456L174.944 50.24C170.592 54.272 165.152 56.704 157.792 56.704ZM175.96 56L193.88 10.816H202.968L220.696 56H210.072L207.064 47.808H189.4L186.392 56H175.96ZM192.408 39.616H204.12L198.296 23.488L192.408 39.616ZM225.477 56V10.816H244.869C253.573 10.816 258.501 16.128 258.501 22.656C258.501 26.688 256.581 29.888 252.933 31.872C257.541 34.112 260.037 37.952 260.037 42.88C260.037 50.304 254.277 56 244.741 56H225.477ZM242.949 18.624H235.397V28.672H242.949C246.213 28.672 248.517 27.008 248.517 23.616C248.517 20.288 246.277 18.624 242.949 18.624ZM243.781 36.288H235.397V48.192H243.781C247.685 48.192 250.053 45.632 250.053 42.24C250.053 38.848 247.685 36.288 243.781 36.288Z" fill="#FEFEFE"/>
<path d="M266.477 56V10.816H284.909C293.869 10.816 300.013 16.32 300.013 24.128C300.013 30.976 295.533 35.776 288.493 37.056L302.957 56H291.053L277.613 37.376H276.525V56H266.477ZM283.757 18.624H276.525V29.952H283.693C287.725 29.952 289.965 27.776 289.965 24.256C289.965 20.992 287.725 18.624 283.757 18.624ZM307.352 56V10.816H317.4V56H307.352ZM326.102 56V10.816H344.214C357.782 10.816 367.958 20.096 367.958 33.408C367.958 46.592 357.846 56 344.342 56H326.102ZM344.086 19.584H336.15V47.168H344.086C352.278 47.168 357.654 41.984 357.654 33.344C357.654 24.768 352.214 19.584 344.086 19.584ZM374.352 56V10.816H406.48V19.456H384.4V28.736H404.56V37.12H384.4V47.296H406.8V56H374.352Z" fill="#8696FE"/>
</svg>
